<?xml version="1.0" ?><svg height="48" id="svg6485" version="1.1" viewBox="0 0 48 48" width="48" xmlns="http://www.w3.org/2000/svg" xmlns:cc="http://creativecommons.org/ns#" xmlns:dc="http://purl.org/dc/elements/1.1/" xmlns:inkscape="http://www.inkscape.org/namespaces/inkscape" xmlns:rdf="http://www.w3.org/1999/02/22-rdf-syntax-ns#" xmlns:sodipodi="http://sodipodi.sourceforge.net/DTD/sodipodi-0.dtd" xmlns:svg="http://www.w3.org/2000/svg"><defs id="defs6487"/><g id="layer1" transform="translate(0,-1004.3622)"><text id="text4366" style="font-style:normal;font-weight:normal;font-size:11.25px;line-height:125%;font-family:Sans;letter-spacing:0px;word-spacing:0px;fill:#000000;fill-opacity:1;stroke:none;stroke-width:1px;stroke-linecap:butt;stroke-linejoin:miter;stroke-opacity:1" x="12" xml:space="preserve" y="1036.3622"><tspan id="tspan4368" x="12" y="1036.3622"/></text><g id="text4981" style="font-style:normal;font-variant:normal;font-weight:normal;font-stretch:normal;font-size:12.37186241px;line-height:125%;font-family:'Roboto Condensed';-inkscape-font-specification:'Roboto Condensed, ';letter-spacing:0px;word-spacing:0px;fill:#000000;fill-opacity:1;stroke:none;stroke-width:1px;stroke-linecap:butt;stroke-linejoin:miter;stroke-opacity:1" transform="scale(1.1477838,0.87124422)"/><g id="g5466"><g id="g5949" transform="translate(534.02794,312.17156)"><path d="m -510.02794,692.19064 c -13.25187,0 -24,10.74825 -24,24 0,13.2519 10.74813,24 24,24 13.25187,0 24,-10.7481 24,-24 0,-13.25175 -10.74813,-24 -24,-24 z m 0,1.5 c 12.42359,0 22.5,10.07655 22.5,22.5 0,12.4236 -10.07641,22.5 -22.5,22.5 -12.42359,0 -22.5,-10.0764 -22.5,-22.5 0,-12.42345 10.07641,-22.5 22.5,-22.5 z" id="path5843" style="color:#000000;font-style:normal;font-variant:normal;font-weight:normal;font-stretch:normal;font-size:medium;line-height:normal;font-family:sans-serif;text-indent:0;text-align:start;text-decoration:none;text-decoration-line:none;text-decoration-style:solid;text-decoration-color:#000000;letter-spacing:normal;word-spacing:normal;text-transform:none;direction:ltr;block-progression:tb;writing-mode:lr-tb;baseline-shift:baseline;text-anchor:start;white-space:normal;clip-rule:nonzero;display:inline;overflow:visible;visibility:visible;opacity:1;isolation:auto;mix-blend-mode:normal;color-interpolation:sRGB;color-interpolation-filters:linearRGB;solid-color:#000000;solid-opacity:1;fill:#e26600;fill-opacity:1;fill-rule:nonzero;stroke:none;stroke-width:0.99999994;stroke-linecap:round;stroke-linejoin:round;stroke-miterlimit:4;stroke-dasharray:none;stroke-dashoffset:0;stroke-opacity:1;color-rendering:auto;image-rendering:auto;shape-rendering:auto;text-rendering:auto;enable-background:accumulate"/><path d="m -510.02794,696.44059 c -10.90519,0 -19.75,8.84505 -19.75,19.75005 0,10.90515 8.84481,19.75005 19.75,19.75005 10.90519,0 19.75,-8.8449 19.75,-19.75005 0,-10.905 -8.84481,-19.75005 -19.75,-19.75005 z" id="path5845" style="color:#000000;font-style:normal;font-variant:normal;font-weight:normal;font-stretch:normal;font-size:medium;line-height:normal;font-family:sans-serif;text-indent:0;text-align:start;text-decoration:none;text-decoration-line:none;text-decoration-style:solid;text-decoration-color:#000000;letter-spacing:normal;word-spacing:normal;text-transform:none;direction:ltr;block-progression:tb;writing-mode:lr-tb;baseline-shift:baseline;text-anchor:start;white-space:normal;clip-rule:nonzero;display:inline;overflow:visible;visibility:visible;opacity:1;isolation:auto;mix-blend-mode:normal;color-interpolation:sRGB;color-interpolation-filters:linearRGB;solid-color:#000000;solid-opacity:1;fill:#e26600;fill-opacity:1;fill-rule:nonzero;stroke:none;stroke-width:0.99999994;stroke-linecap:round;stroke-linejoin:round;stroke-miterlimit:4;stroke-dasharray:none;stroke-dashoffset:0;stroke-opacity:1;color-rendering:auto;image-rendering:auto;shape-rendering:auto;text-rendering:auto;enable-background:accumulate"/><path d="m -510.02794,696.44059 c -10.90519,0 -19.75,8.84505 -19.75,19.75005 0,5.4579 2.21752,10.39755 5.798,13.9728 l 27.92477,-27.92475 c -3.57517,-3.5805 -8.51487,-5.7981 -13.97277,-5.7981 z" id="path5847" style="color:#000000;clip-rule:nonzero;display:inline;overflow:visible;visibility:visible;opacity:1;isolation:auto;mix-blend-mode:normal;color-interpolation:sRGB;color-interpolation-filters:linearRGB;solid-color:#000000;solid-opacity:1;fill:#dd4400;fill-opacity:1;fill-rule:nonzero;stroke:none;stroke-width:1.5;stroke-linecap:butt;stroke-linejoin:miter;stroke-miterlimit:4;stroke-dasharray:none;stroke-dashoffset:0;stroke-opacity:1;color-rendering:auto;image-rendering:auto;shape-rendering:auto;text-rendering:auto;enable-background:accumulate"/></g><g id="g4832"><path d="m 24,10 c -0.833033,0 -1.52364,0.377922 -2.001953,0.919922 -0.478313,0.5421 -0.7764,1.232259 -0.978516,1.943359 l -0.404297,1.423828 c -0.0234,0.04928 -0.03857,0.102065 -0.04492,0.15625 l -0.523437,1.84375 c -0.0232,0.04867 -0.03836,0.100779 -0.04492,0.154297 l -1.09375,3.847656 c -0.02232,0.04818 -0.03683,0.0996 -0.04297,0.152344 l -0.52539,1.847656 c -0.02212,0.04757 -0.03662,0.09832 -0.04297,0.150391 l -1.089844,3.839844 c -0.02782,0.05557 -0.04505,0.115848 -0.05078,0.177734 l -0.519531,1.822266 c -0.02715,0.05571 -0.04371,0.115976 -0.04883,0.177734 l -0.96875,3.40625 L 15.580078,32 14,32 c -1.099356,0 -2,0.9007 -2,2 0,1.0994 0.900644,2 2,2 l 20,0 c 1.099356,0 2,-0.9006 2,-2 0,-1.0993 -0.900644,-2 -2,-2 l -1.580078,0 -0.03906,-0.136719 -0.970703,-3.412109 c -0.0054,-0.05897 -0.02131,-0.116504 -0.04687,-0.169922 l -0.521484,-1.830078 c -0.0058,-0.05976 -0.02237,-0.117979 -0.04883,-0.171875 l -1.089844,-3.837891 c -0.0066,-0.05352 -0.02173,-0.105623 -0.04492,-0.154297 l -0.523437,-1.845703 c -0.0066,-0.05352 -0.02173,-0.105623 -0.04492,-0.154297 l -1.091797,-3.845703 c -0.0064,-0.05419 -0.02153,-0.106966 -0.04492,-0.15625 l -0.523437,-1.84375 c -0.0063,-0.05419 -0.02153,-0.106966 -0.04492,-0.15625 L 26.980469,12.863281 C 26.778352,12.152181 26.480266,11.462022 26.001953,10.919922 25.523641,10.377922 24.833033,10 24,10 Z m 0,1 c 0.551975,0 0.921168,0.207131 1.251953,0.582031 0.330785,0.3748 0.591062,0.933688 0.767578,1.554688 L 26.265625,14 l -4.53125,0 0.246094,-0.863281 c 0.176515,-0.621 0.436793,-1.179888 0.767578,-1.554688 C 23.078832,11.207131 23.448024,11 24,11 Z m -2.548828,4 5.097656,0 0.285156,1 -5.667968,0 z m -0.56836,2 6.234376,0 0.853515,3 -7.941406,0 z m -1.136718,4 8.507812,0 0.285156,1 -9.078124,0 z m -0.56836,2 9.644532,0 0.853515,3 -11.351562,0 z m -1.136718,4 11.917968,0 0.285157,1 -12.488282,0 z m -0.570313,2 13.058594,0 0.851562,3 -14.761718,0 z M 14,33 34,33 c 0.562653,0 1,0.4374 1,1 0,0.5627 -0.437347,1 -1,1 l -20,0 c -0.562653,0 -1,-0.4373 -1,-1 0,-0.5626 0.437347,-1 1,-1 z" id="rect4814" style="color:#000000;font-style:normal;font-variant:normal;font-weight:normal;font-stretch:normal;font-size:medium;line-height:normal;font-family:sans-serif;text-indent:0;text-align:start;text-decoration:none;text-decoration-line:none;text-decoration-style:solid;text-decoration-color:#000000;letter-spacing:normal;word-spacing:normal;text-transform:none;direction:ltr;block-progression:tb;writing-mode:lr-tb;baseline-shift:baseline;text-anchor:start;white-space:normal;clip-rule:nonzero;display:inline;overflow:visible;visibility:visible;opacity:1;isolation:auto;mix-blend-mode:normal;color-interpolation:sRGB;color-interpolation-filters:linearRGB;solid-color:#000000;solid-opacity:1;fill:#ffffff;fill-opacity:1;fill-rule:nonzero;stroke:none;stroke-width:1;stroke-linecap:round;stroke-linejoin:round;stroke-miterlimit:4;stroke-dasharray:none;stroke-dashoffset:0;stroke-opacity:1;color-rendering:auto;image-rendering:auto;shape-rendering:auto;text-rendering:auto;enable-background:accumulate" transform="translate(0,1004.3622)"/></g></g></g></svg>